{
	"asset":{
		"generator":"Khronos glTF Blender I/O v3.5.30",
		"version":"2.0"
	},
	"scene":0,
	"scenes":[
		{
			"name":"Scene",
			"nodes":[
				0
			]
		}
	],
	"nodes":[
		{
			"mesh":0,
			"name":"imagetostl_mesh0"
		}
	],
	"materials":[
		{
			"doubleSided":true,
			"name":"mat0",
			"pbrMetallicRoughness":{
				"baseColorFactor":[
					1,
					0.766986072063446,
					0.14307016134262085,
					1
				],
				"metallicFactor":0,
				"roughnessFactor":0.4000000059604645
			}
		}
	],
	"meshes":[
		{
			"name":"imagetostl_mesh0",
			"primitives":[
				{
					"attributes":{
						"POSITION":0,
						"NORMAL":1
					},
					"indices":2,
					"material":0
				}
			]
		}
	],
	"accessors":[
		{
			"bufferView":0,
			"componentType":5126,
			"count":24554,
			"max":[
				69.96437072753906,
				1.2000000476837158,
				34.96437454223633
			],
			"min":[
				-69.96437072753906,
				-7,
				-34.96437454223633
			],
			"type":"VEC3"
		},
		{
			"bufferView":1,
			"componentType":5126,
			"count":24554,
			"type":"VEC3"
		},
		{
			"bufferView":2,
			"componentType":5123,
			"count":32844,
			"type":"SCALAR"
		}
	],
	"bufferViews":[
		{
			"buffer":0,
			"byteLength":294648,
			"byteOffset":0,
			"target":34962
		},
		{
			"buffer":0,
			"byteLength":294648,
			"byteOffset":294648,
			"target":34962
		},
		{
			"buffer":0,
			"byteLength":65688,
			"byteOffset":589296,
			"target":34963
		}
	],
	"buffers":[
		{
			"byteLength":654984,
			"uri":"bandeja.bin"
		}
	]
}
