{
	"asset":{
		"generator":"Khronos glTF Blender I/O v3.5.30",
		"version":"2.0"
	},
	"scene":0,
	"scenes":[
		{
			"name":"Scene",
			"nodes":[
				1,
				2
			]
		}
	],
	"nodes":[
		{
			"mesh":0,
			"name":"Cylinder.001"
		},
		{
			"children":[
				0
			],
			"mesh":1,
			"name":"Cylinder"
		},
		{
			"mesh":2,
			"name":"Cube"
		}
	],
	"materials":[
		{
			"doubleSided":true,
			"name":"Material1",
			"pbrMetallicRoughness":{}
		},
		{
			"doubleSided":true,
			"name":"Material2",
			"pbrMetallicRoughness":{
				"baseColorFactor":[
					0.018848516047000885,
					0.018848516047000885,
					0.018848516047000885,
					1
				],
				"metallicFactor":0,
				"roughnessFactor":0.5
			}
		},
		{
			"doubleSided":true,
			"name":"plastic",
			"pbrMetallicRoughness":{}
		}
	],
	"meshes":[
		{
			"name":"Cylinder.003",
			"primitives":[
				{
					"attributes":{
						"POSITION":0,
						"NORMAL":1
					},
					"indices":2,
					"material":0
				},
				{
					"attributes":{
						"POSITION":3,
						"NORMAL":4
					},
					"indices":5,
					"material":1
				}
			]
		},
		{
			"name":"Cylinder",
			"primitives":[
				{
					"attributes":{
						"POSITION":6,
						"NORMAL":7
					},
					"indices":8,
					"material":2
				}
			]
		},
		{
			"name":"Cube.001",
			"primitives":[
				{
					"attributes":{
						"POSITION":9,
						"NORMAL":10
					},
					"indices":11
				}
			]
		}
	],
	"accessors":[
		{
			"bufferView":0,
			"componentType":5126,
			"count":128,
			"max":[
				0.9105905294418335,
				1.6375867128372192,
				0.9105909466743469
			],
			"min":[
				-0.9105909466743469,
				1.5106321573257446,
				-0.9105903506278992
			],
			"type":"VEC3"
		},
		{
			"bufferView":1,
			"componentType":5126,
			"count":128,
			"type":"VEC3"
		},
		{
			"bufferView":2,
			"componentType":5123,
			"count":384,
			"type":"SCALAR"
		},
		{
			"bufferView":3,
			"componentType":5126,
			"count":32,
			"max":[
				0.8780558109283447,
				1.6375867128372192,
				0.8780562281608582
			],
			"min":[
				-0.8780562281608582,
				1.6375867128372192,
				-0.8780556321144104
			],
			"type":"VEC3"
		},
		{
			"bufferView":4,
			"componentType":5126,
			"count":32,
			"type":"VEC3"
		},
		{
			"bufferView":5,
			"componentType":5123,
			"count":90,
			"type":"SCALAR"
		},
		{
			"bufferView":6,
			"componentType":5126,
			"count":576,
			"max":[
				1.0160586833953857,
				1.6059226989746094,
				1.0160588026046753
			],
			"min":[
				-1.0160586833953857,
				-1.4917681217193604,
				-1.0160586833953857
			],
			"type":"VEC3"
		},
		{
			"bufferView":7,
			"componentType":5126,
			"count":576,
			"type":"VEC3"
		},
		{
			"bufferView":8,
			"componentType":5123,
			"count":2010,
			"type":"SCALAR"
		},
		{
			"bufferView":9,
			"componentType":5126,
			"count":44,
			"max":[
				1.25,
				2,
				1.2855074405670166
			],
			"min":[
				0,
				0,
				0
			],
			"type":"VEC3"
		},
		{
			"bufferView":10,
			"componentType":5126,
			"count":44,
			"type":"VEC3"
		},
		{
			"bufferView":11,
			"componentType":5123,
			"count":75,
			"type":"SCALAR"
		}
	],
	"bufferViews":[
		{
			"buffer":0,
			"byteLength":1536,
			"byteOffset":0,
			"target":34962
		},
		{
			"buffer":0,
			"byteLength":1536,
			"byteOffset":1536,
			"target":34962
		},
		{
			"buffer":0,
			"byteLength":768,
			"byteOffset":3072,
			"target":34963
		},
		{
			"buffer":0,
			"byteLength":384,
			"byteOffset":3840,
			"target":34962
		},
		{
			"buffer":0,
			"byteLength":384,
			"byteOffset":4224,
			"target":34962
		},
		{
			"buffer":0,
			"byteLength":180,
			"byteOffset":4608,
			"target":34963
		},
		{
			"buffer":0,
			"byteLength":6912,
			"byteOffset":4788,
			"target":34962
		},
		{
			"buffer":0,
			"byteLength":6912,
			"byteOffset":11700,
			"target":34962
		},
		{
			"buffer":0,
			"byteLength":4020,
			"byteOffset":18612,
			"target":34963
		},
		{
			"buffer":0,
			"byteLength":528,
			"byteOffset":22632,
			"target":34962
		},
		{
			"buffer":0,
			"byteLength":528,
			"byteOffset":23160,
			"target":34962
		},
		{
			"buffer":0,
			"byteLength":150,
			"byteOffset":23688,
			"target":34963
		}
	],
	"buffers":[
		{
			"byteLength":23840,
			"uri":"barril%20azul.bin"
		}
	]
}
