{
	"asset":{
		"generator":"Khronos glTF Blender I/O v3.5.30",
		"version":"2.0"
	},
	"scene":0,
	"scenes":[
		{
			"name":"Scene",
			"nodes":[
				0,
				1
			]
		}
	],
	"nodes":[
		{
			"mesh":0,
			"name":"Cilindro",
			"scale":[
				0.30000001192092896,
				1.559999942779541,
				0.30000001192092896
			]
		},
		{
			"mesh":1,
			"name":"Cilindro.001",
			"scale":[
				0.6500000357627869,
				1.25,
				0.6500000953674316
			]
		}
	],
	"meshes":[
		{
			"name":"Cilindro.002",
			"primitives":[
				{
					"attributes":{
						"POSITION":0,
						"TEXCOORD_0":1,
						"NORMAL":2
					},
					"indices":3
				}
			]
		},
		{
			"name":"Cilindro.003",
			"primitives":[
				{
					"attributes":{
						"POSITION":4,
						"TEXCOORD_0":5,
						"NORMAL":6
					},
					"indices":7
				}
			]
		}
	],
	"accessors":[
		{
			"bufferView":0,
			"componentType":5126,
			"count":384,
			"max":[
				0.9999999403953552,
				0.9999998807907104,
				0.9999999403953552
			],
			"min":[
				-0.9999999403953552,
				-0.9999998807907104,
				-0.9999999403953552
			],
			"type":"VEC3"
		},
		{
			"bufferView":1,
			"componentType":5126,
			"count":384,
			"type":"VEC2"
		},
		{
			"bufferView":2,
			"componentType":5126,
			"count":384,
			"type":"VEC3"
		},
		{
			"bufferView":3,
			"componentType":5123,
			"count":768,
			"type":"SCALAR"
		},
		{
			"bufferView":4,
			"componentType":5126,
			"count":378,
			"max":[
				1,
				1,
				1
			],
			"min":[
				-1,
				-1,
				-1
			],
			"type":"VEC3"
		},
		{
			"bufferView":5,
			"componentType":5126,
			"count":378,
			"type":"VEC2"
		},
		{
			"bufferView":6,
			"componentType":5126,
			"count":378,
			"type":"VEC3"
		},
		{
			"bufferView":7,
			"componentType":5123,
			"count":768,
			"type":"SCALAR"
		}
	],
	"bufferViews":[
		{
			"buffer":0,
			"byteLength":4608,
			"byteOffset":0,
			"target":34962
		},
		{
			"buffer":0,
			"byteLength":3072,
			"byteOffset":4608,
			"target":34962
		},
		{
			"buffer":0,
			"byteLength":4608,
			"byteOffset":7680,
			"target":34962
		},
		{
			"buffer":0,
			"byteLength":1536,
			"byteOffset":12288,
			"target":34963
		},
		{
			"buffer":0,
			"byteLength":4536,
			"byteOffset":13824,
			"target":34962
		},
		{
			"buffer":0,
			"byteLength":3024,
			"byteOffset":18360,
			"target":34962
		},
		{
			"buffer":0,
			"byteLength":4536,
			"byteOffset":21384,
			"target":34962
		},
		{
			"buffer":0,
			"byteLength":1536,
			"byteOffset":25920,
			"target":34963
		}
	],
	"buffers":[
		{
			"byteLength":27456,
			"uri":"bobina1.bin"
		}
	]
}
