{
	"asset":{
		"generator":"Khronos glTF Blender I/O v3.5.30",
		"version":"2.0"
	},
	"scene":0,
	"scenes":[
		{
			"name":"Scene",
			"nodes":[
				0,
				1,
				2,
				3,
				4,
				5
			]
		}
	],
	"nodes":[
		{
			"mesh":0,
			"name":"Cilindro",
			"rotation":[
				-0.1681453287601471,
				-0.16735102236270905,
				-0.6852927207946777,
				0.6885453462600708
			],
			"scale":[
				1,
				3.125046968460083,
				1
			],
			"translation":[
				2.3963656425476074,
				7.408198833465576,
				1.4467997550964355
			]
		},
		{
			"mesh":1,
			"name":"Cilindro.001",
			"rotation":[
				-0.1681453287601471,
				-0.16735102236270905,
				-0.6852927207946777,
				0.6885453462600708
			],
			"scale":[
				1.3366769552230835,
				4.177178859710693,
				1.3366769552230835
			],
			"translation":[
				1.309612512588501,
				7.406291484832764,
				1.447790265083313
			]
		},
		{
			"mesh":2,
			"name":"Plano",
			"rotation":[
				0.7268819212913513,
				0.0005993132945150137,
				-0.000634324736893177,
				0.6867619752883911
			],
			"scale":[
				7.550333023071289,
				1,
				1
			],
			"translation":[
				-2.0708751678466797,
				6.504051208496094,
				0.081444151699543
			]
		},
		{
			"mesh":3,
			"name":"Plano.001",
			"rotation":[
				0.7268819212913513,
				0.0005993132945150137,
				-0.000634324736893177,
				0.6867619752883911
			],
			"scale":[
				7.550333023071289,
				1,
				1
			],
			"translation":[
				-2.0708751678466797,
				8.93985366821289,
				4.6582112312316895
			]
		},
		{
			"mesh":4,
			"name":"Cilindro.002",
			"rotation":[
				-0.1681453287601471,
				-0.16735102236270905,
				-0.6852927207946777,
				0.6885453462600708
			],
			"scale":[
				1.3366769552230835,
				4.177178859710693,
				1.3366769552230835
			],
			"translation":[
				1.309612512588501,
				9.842093467712402,
				6.024557113647461
			]
		},
		{
			"mesh":5,
			"name":"Cilindro.003",
			"rotation":[
				-0.1681453287601471,
				-0.16735102236270905,
				-0.6852927207946777,
				0.6885453462600708
			],
			"scale":[
				1,
				3.125046968460083,
				1
			],
			"translation":[
				2.3963656425476074,
				9.844000816345215,
				6.023566722869873
			]
		}
	],
	"materials":[
		{
			"doubleSided":true,
			"name":"Material.002",
			"pbrMetallicRoughness":{
				"baseColorFactor":[
					0.2019035369157791,
					0.10904347151517868,
					0.07523097842931747,
					1
				],
				"metallicFactor":0,
				"roughnessFactor":0.5
			}
		},
		{
			"doubleSided":true,
			"name":"Material.003",
			"pbrMetallicRoughness":{
				"baseColorFactor":[
					0.027320334687829018,
					0.07035977393388748,
					0.7991027235984802,
					1
				],
				"metallicFactor":0,
				"roughnessFactor":0.5
			}
		},
		{
			"doubleSided":true,
			"name":"Material.005",
			"pbrMetallicRoughness":{
				"baseColorFactor":[
					0.027320334687829018,
					0.07035977393388748,
					0.7991027235984802,
					1
				],
				"metallicFactor":0,
				"roughnessFactor":0.5
			}
		},
		{
			"doubleSided":true,
			"name":"Material.006",
			"pbrMetallicRoughness":{
				"baseColorFactor":[
					0.7991032004356384,
					0.004776763264089823,
					0,
					1
				],
				"metallicFactor":0,
				"roughnessFactor":0.5
			}
		},
		{
			"doubleSided":true,
			"name":"Material.007",
			"pbrMetallicRoughness":{
				"baseColorFactor":[
					0.7991033792495728,
					0.002362131141126156,
					0,
					1
				],
				"metallicFactor":0,
				"roughnessFactor":0.5
			}
		},
		{
			"doubleSided":true,
			"name":"Material.008",
			"pbrMetallicRoughness":{
				"baseColorFactor":[
					0.2019035369157791,
					0.10904347151517868,
					0.07523097842931747,
					1
				],
				"metallicFactor":0,
				"roughnessFactor":0.5
			}
		}
	],
	"meshes":[
		{
			"name":"Cilindro.001",
			"primitives":[
				{
					"attributes":{
						"POSITION":0,
						"TEXCOORD_0":1,
						"NORMAL":2
					},
					"indices":3,
					"material":0
				}
			]
		},
		{
			"name":"Cilindro.002",
			"primitives":[
				{
					"attributes":{
						"POSITION":4,
						"TEXCOORD_0":5,
						"NORMAL":6
					},
					"indices":7,
					"material":1
				}
			]
		},
		{
			"name":"Plano.001",
			"primitives":[
				{
					"attributes":{
						"POSITION":8,
						"TEXCOORD_0":9,
						"NORMAL":10
					},
					"indices":11,
					"material":2
				}
			]
		},
		{
			"name":"Plano.002",
			"primitives":[
				{
					"attributes":{
						"POSITION":12,
						"TEXCOORD_0":13,
						"NORMAL":14
					},
					"indices":11,
					"material":3
				}
			]
		},
		{
			"name":"Cilindro.003",
			"primitives":[
				{
					"attributes":{
						"POSITION":15,
						"TEXCOORD_0":16,
						"NORMAL":17
					},
					"indices":18,
					"material":4
				}
			]
		},
		{
			"name":"Cilindro.004",
			"primitives":[
				{
					"attributes":{
						"POSITION":19,
						"TEXCOORD_0":20,
						"NORMAL":21
					},
					"indices":3,
					"material":5
				}
			]
		}
	],
	"accessors":[
		{
			"bufferView":0,
			"componentType":5126,
			"count":384,
			"max":[
				1,
				1,
				1
			],
			"min":[
				-1,
				-3.860626697540283,
				-1
			],
			"type":"VEC3"
		},
		{
			"bufferView":1,
			"componentType":5126,
			"count":384,
			"type":"VEC2"
		},
		{
			"bufferView":2,
			"componentType":5126,
			"count":384,
			"type":"VEC3"
		},
		{
			"bufferView":3,
			"componentType":5123,
			"count":768,
			"type":"SCALAR"
		},
		{
			"bufferView":4,
			"componentType":5126,
			"count":384,
			"max":[
				1,
				1,
				1
			],
			"min":[
				-1,
				-2.62101149559021,
				-1
			],
			"type":"VEC3"
		},
		{
			"bufferView":5,
			"componentType":5126,
			"count":384,
			"type":"VEC2"
		},
		{
			"bufferView":6,
			"componentType":5126,
			"count":384,
			"type":"VEC3"
		},
		{
			"bufferView":7,
			"componentType":5123,
			"count":768,
			"type":"SCALAR"
		},
		{
			"bufferView":8,
			"componentType":5126,
			"count":4,
			"max":[
				1,
				0,
				1
			],
			"min":[
				-1,
				0,
				-1
			],
			"type":"VEC3"
		},
		{
			"bufferView":9,
			"componentType":5126,
			"count":4,
			"type":"VEC2"
		},
		{
			"bufferView":10,
			"componentType":5126,
			"count":4,
			"type":"VEC3"
		},
		{
			"bufferView":11,
			"componentType":5123,
			"count":6,
			"type":"SCALAR"
		},
		{
			"bufferView":12,
			"componentType":5126,
			"count":4,
			"max":[
				1,
				0,
				1
			],
			"min":[
				-1,
				0,
				-1
			],
			"type":"VEC3"
		},
		{
			"bufferView":13,
			"componentType":5126,
			"count":4,
			"type":"VEC2"
		},
		{
			"bufferView":14,
			"componentType":5126,
			"count":4,
			"type":"VEC3"
		},
		{
			"bufferView":15,
			"componentType":5126,
			"count":390,
			"max":[
				1,
				1,
				1
			],
			"min":[
				-1,
				-2.62101149559021,
				-1
			],
			"type":"VEC3"
		},
		{
			"bufferView":16,
			"componentType":5126,
			"count":390,
			"type":"VEC2"
		},
		{
			"bufferView":17,
			"componentType":5126,
			"count":390,
			"type":"VEC3"
		},
		{
			"bufferView":18,
			"componentType":5123,
			"count":792,
			"type":"SCALAR"
		},
		{
			"bufferView":19,
			"componentType":5126,
			"count":384,
			"max":[
				1,
				1,
				1
			],
			"min":[
				-1,
				-3.860626697540283,
				-1
			],
			"type":"VEC3"
		},
		{
			"bufferView":20,
			"componentType":5126,
			"count":384,
			"type":"VEC2"
		},
		{
			"bufferView":21,
			"componentType":5126,
			"count":384,
			"type":"VEC3"
		}
	],
	"bufferViews":[
		{
			"buffer":0,
			"byteLength":4608,
			"byteOffset":0,
			"target":34962
		},
		{
			"buffer":0,
			"byteLength":3072,
			"byteOffset":4608,
			"target":34962
		},
		{
			"buffer":0,
			"byteLength":4608,
			"byteOffset":7680,
			"target":34962
		},
		{
			"buffer":0,
			"byteLength":1536,
			"byteOffset":12288,
			"target":34963
		},
		{
			"buffer":0,
			"byteLength":4608,
			"byteOffset":13824,
			"target":34962
		},
		{
			"buffer":0,
			"byteLength":3072,
			"byteOffset":18432,
			"target":34962
		},
		{
			"buffer":0,
			"byteLength":4608,
			"byteOffset":21504,
			"target":34962
		},
		{
			"buffer":0,
			"byteLength":1536,
			"byteOffset":26112,
			"target":34963
		},
		{
			"buffer":0,
			"byteLength":48,
			"byteOffset":27648,
			"target":34962
		},
		{
			"buffer":0,
			"byteLength":32,
			"byteOffset":27696,
			"target":34962
		},
		{
			"buffer":0,
			"byteLength":48,
			"byteOffset":27728,
			"target":34962
		},
		{
			"buffer":0,
			"byteLength":12,
			"byteOffset":27776,
			"target":34963
		},
		{
			"buffer":0,
			"byteLength":48,
			"byteOffset":27788,
			"target":34962
		},
		{
			"buffer":0,
			"byteLength":32,
			"byteOffset":27836,
			"target":34962
		},
		{
			"buffer":0,
			"byteLength":48,
			"byteOffset":27868,
			"target":34962
		},
		{
			"buffer":0,
			"byteLength":4680,
			"byteOffset":27916,
			"target":34962
		},
		{
			"buffer":0,
			"byteLength":3120,
			"byteOffset":32596,
			"target":34962
		},
		{
			"buffer":0,
			"byteLength":4680,
			"byteOffset":35716,
			"target":34962
		},
		{
			"buffer":0,
			"byteLength":1584,
			"byteOffset":40396,
			"target":34963
		},
		{
			"buffer":0,
			"byteLength":4608,
			"byteOffset":41980,
			"target":34962
		},
		{
			"buffer":0,
			"byteLength":3072,
			"byteOffset":46588,
			"target":34962
		},
		{
			"buffer":0,
			"byteLength":4608,
			"byteOffset":49660,
			"target":34962
		}
	],
	"buffers":[
		{
			"byteLength":54268,
			"uri":"data:application/octet-stream;base64,"
		}
	]
}
