{"accessors" : [{"bufferView" : 0, "byteOffset" : 0, "componentType" : 5123, "count" : 3300, "type" : "SCALAR", "max" : [2848], "min" : [0]}, {"bufferView" : 1, "byteOffset" : 0, "componentType" : 5126, "count" : 2849, "type" : "VEC3", "max" : [-6.4770002365112305, 72.38600158691406, 3], "min" : [-18, -65.29000091552734, -0.0430000014603138], "name" : "POSITION"}, {"bufferView" : 1, "byteOffset" : 12, "componentType" : 5126, "count" : 2849, "type" : "VEC3", "max" : [0.9997586011886597, 0.9999341368675232, 1.0000044107437134], "min" : [-0.9997586011886597, -0.9999341368675232, -1.0000044107437134], "name" : "NORMAL"}], "asset" : {"generator" : "Aspose.3D 23.4.0", "version" : "2.0"}, "buffers" : [{"uri" : "data:application/octet-stream;base64,", "byteLength" : 85808}], "bufferViews" : [{"buffer" : 0, "byteOffset" : 0, "byteLength" : 6600, "target" : 34963}, {"buffer" : 0, "byteOffset" : 6604, "byteLength" : 79200, "byteStride" : 24, "target" : 34962}], "meshes" : [{"primitives" : [{"attributes" : {"POSITION" : 1, "NORMAL" : 2}, "indices" : 0, "mode" : 4}], "name" : ""}], "nodes" : [{"mesh" : 0, "name" : ""}], "scene" : 0, "scenes" : [{"nodes" : [0]}]}