{
	"asset":{
		"generator":"Khronos glTF Blender I/O v3.5.30",
		"version":"2.0"
	},
	"scene":0,
	"scenes":[
		{
			"name":"Scene",
			"nodes":[
				0
			]
		}
	],
	"nodes":[
		{
			"mesh":0,
			"name":"imagetostl_mesh0"
		}
	],
	"materials":[
		{
			"doubleSided":true,
			"name":"mat0",
			"pbrMetallicRoughness":{
				"baseColorFactor":[
					0.1568627506494522,
					0.1568627506494522,
					0.1882352977991104,
					1
				],
				"metallicFactor":0,
				"roughnessFactor":0.4000000059604645
			}
		}
	],
	"meshes":[
		{
			"name":"imagetostl_mesh0",
			"primitives":[
				{
					"attributes":{
						"POSITION":0,
						"NORMAL":1
					},
					"indices":2,
					"material":0
				}
			]
		}
	],
	"accessors":[
		{
			"bufferView":0,
			"componentType":5126,
			"count":1391,
			"max":[
				-6.4770002365112305,
				3,
				65.29000091552734
			],
			"min":[
				-18,
				-0.0430000014603138,
				-72.38600158691406
			],
			"type":"VEC3"
		},
		{
			"bufferView":1,
			"componentType":5126,
			"count":1391,
			"type":"VEC3"
		},
		{
			"bufferView":2,
			"componentType":5123,
			"count":3300,
			"type":"SCALAR"
		}
	],
	"bufferViews":[
		{
			"buffer":0,
			"byteLength":16692,
			"byteOffset":0,
			"target":34962
		},
		{
			"buffer":0,
			"byteLength":16692,
			"byteOffset":16692,
			"target":34962
		},
		{
			"buffer":0,
			"byteLength":6600,
			"byteOffset":33384,
			"target":34963
		}
	],
	"buffers":[
		{
			"byteLength":39984,
			"uri":"data:application/octet-stream;base64,"
		}
	]
}
